# xmcd
# 
# Track frame offsets:
#     150
#     16602
#     31305
#     46007
#     56787
#     74807
#     91332
#     104360
#     116850
#     136872
#     152305
#     169007
#     181770
# 
# Disc length: 2628
# 
# Revision: 4
# Processed by: cddbd v1.5.2PL0 Copyright (c) Steve Scherf et al.
# Submitted via: fre:ac v1.0.31
# 
DISCID=a00a420d
DTITLE=Ana Gabriel - Dos Amores Un Amante
DYEAR=2006
DGENRE=Ranchero
TTITLE0=Olvídate De Ellos
TTITLE1=Desahogo
TTITLE2=La Farsante
TTITLE3=Te Llegará Mi Olvido
TTITLE4=Sin Tu Amor
TTITLE5=La Distancia
TTITLE6=Aprendíste A Volar
TTITLE7=Las Llaves De Mi Alma
TTITLE8=Debo Hacerlo
TTITLE9=Qué Será De Tí
TTITLE10=Por Tu Maldito Amor
TTITLE11=Siete Veces, Siete Más
TTITLE12=Qué Será De Tí (Portuñol)
EXTD=
EXTT0=
EXTT1=
EXTT2=
EXTT3=
EXTT4=
EXTT5=
EXTT6=
EXTT7=
EXTT8=
EXTT9=
EXTT10=
EXTT11=
EXTT12=
PLAYORDER=
